<svg width="100" height="100" viewBox="0 0 100 100" fill="none" xmlns="http://www.w3.org/2000/svg">
<path d="M0 33.2C0 5.8598 5.8598 0 33.2 0H66.8C94.1402 0 100 5.8598 100 33.2V66.8C100 94.1402 94.1402 100 66.8 100H33.2C5.8598 100 0 94.1402 0 66.8V33.2Z" fill="white"/>
<path d="M23.5 32L16.8135 60.1818L32.4093 78H71.5803L85 38.3636L58.1606 46.3584M34.9482 53.2727L33.1347 70.9351L32.4093 78M71.5803 78L65.7772 67.4545L59.9741 66M23.5 32L13.5 34.5L25 19L33.1347 29.5L34.9482 53.2727M34.9482 53.2727L38.5751 52.1924M33.1347 29.5L23.5 32M38.5751 52.1924C41.5195 47.2096 43.6603 44.2693 50.9067 38L58.1606 46.3584M38.5751 52.1924C48.9246 52.9926 54.2813 53.8365 62.8756 56.1818L59.9741 66M38.5751 52.1924L58.1606 46.3584M59.9741 66C50.1948 65.9052 44.1981 67.3314 33.1347 70.9351" stroke="black" stroke-width="3" stroke-linejoin="round"/>
</svg>
