<svg width="100" height="100" viewBox="0 0 100 100" fill="none" xmlns="http://www.w3.org/2000/svg">
<path d="M0 33.2C0 5.8598 5.8598 0 33.2 0H66.8C94.1402 0 100 5.8598 100 33.2V66.8C100 94.1402 94.1402 100 66.8 100H33.2C5.8598 100 0 94.1402 0 66.8V33.2Z" fill="black"/>
<path d="M24.7084 82.375C26.4792 66.4375 33.5625 54.0417 49.5 46.9583" stroke="white" stroke-width="5" stroke-linecap="round" stroke-linejoin="round"/>
<path d="M33.5625 61.125C25.2986 61.125 19.9861 54.0417 17.625 39.875C21.7386 39.4991 25.8854 39.984 29.8013 41.2988C29.7089 40.3649 29.6474 39.4282 29.6171 38.4902C29.6171 25.719 40.9646 18.625 40.9646 18.625C40.9646 18.625 48.0585 23.0592 51.03 31.2227C57.0933 27.5465 64.8472 25.7083 74.2917 25.7083C75.2267 34.6215 73.3885 42.3754 68.7773 48.97C76.9408 51.9415 81.375 59.0354 81.375 59.0354C81.375 59.0354 70.75 68.2083 56.5833 68.2083C56.5833 71.75 56.5833 71.75 58.3542 78.8333C44.1875 78.8333 35.9236 72.9306 33.5625 61.125Z" stroke="white" stroke-width="5" stroke-linecap="round" stroke-linejoin="round"/>
</svg>
